<?xml version="1.0" encoding="UTF-8"?>
<svg width="21px" height="21px" viewBox="0 0 21 21" version="1.1" xmlns="http://www.w3.org/2000/svg" xmlns:xlink="http://www.w3.org/1999/xlink">
    <!-- Generator: Sketch 43.2 (39069) - http://www.bohemiancoding.com/sketch -->
    <title>Settings</title>
    <desc>Created with Sketch.</desc>
    <defs></defs>
    <g id="I'm-Grateful-For" stroke="none" stroke-width="1" fill="none" fill-rule="evenodd">
        <g id="Mobile-Portrait" transform="translate(-280.000000, -15.000000)" fill-rule="nonzero" fill="#6B6B6B">
            <path d="M291.266691,35.46 L289.723309,35.46 C289.251498,35.46 288.811675,35.0921474 288.739704,34.6283333 L288.531787,33.3648397 C288.467813,32.9729968 288.067973,32.5091827 287.652139,32.34125 C287.236306,32.1653205 286.62855,32.2133013 286.308678,32.4452083 L285.269095,33.1889103 C284.885248,33.4687981 284.317476,33.4208173 283.981611,33.0849519 L282.88605,31.9973878 C282.550184,31.6615224 282.502204,31.09375 282.782091,30.7099038 L283.525793,29.6703205 C283.7577,29.3504487 283.805681,28.7426923 283.629752,28.326859 C283.453822,27.9110256 282.990008,27.5111859 282.598165,27.4472115 L282.598165,27.4472115 L281.334671,27.2392949 C280.862861,27.1593269 280.503005,26.7275 280.503005,26.2556891 L280.503005,24.7123077 C280.503005,24.2404968 280.870857,23.8086699 281.334671,23.7287019 L282.598165,23.5207853 C282.990008,23.4568109 283.453822,23.0569712 283.629752,22.6411378 C283.805681,22.2253045 283.7577,21.6175481 283.525793,21.2976763 L282.782091,20.2580929 C282.502204,19.8742468 282.550184,19.3064744 282.88605,18.970609 L283.981611,17.8830449 C284.317476,17.5471795 284.885248,17.4991987 285.269095,17.7790865 L286.308678,18.5227885 C286.62855,18.7546955 287.236306,18.8026763 287.652139,18.6267468 C288.07597,18.4508173 288.467813,17.9870032 288.531787,17.5951603 L288.739704,16.3396635 C288.819671,15.8678526 289.251498,15.5 289.723309,15.5 L291.266691,15.5 C291.738502,15.5 292.178325,15.8678526 292.250296,16.3316667 L292.458213,17.5951603 C292.522188,17.9870032 292.922027,18.4508173 293.337861,18.61875 C293.753694,18.7946795 294.36145,18.7466987 294.681322,18.5147917 L295.720905,17.7710897 C296.104752,17.4912019 296.672524,17.5391827 297.008389,17.8750481 L298.10395,18.9626122 C298.439816,19.2984776 298.487796,19.86625 298.207909,20.2500962 L297.464207,21.2896795 C297.2323,21.6095513 297.184319,22.2173077 297.360248,22.633141 C297.536178,23.0489744 297.999992,23.4488141 298.391835,23.5127885 L299.655329,23.7207051 C300.127139,23.8006731 300.486995,24.2325 300.486995,24.7043109 L300.486995,26.2476923 C300.486995,26.7195032 300.119143,27.1593269 299.647332,27.2312981 L298.383838,27.4392147 C297.991995,27.5031891 297.528181,27.9030288 297.352252,28.3188622 C297.176322,28.7346955 297.224303,29.3424519 297.45621,29.6623237 L298.199912,30.7019071 C298.4798,31.0857532 298.431819,31.6535256 298.095954,31.989391 L297.008389,33.0769551 C296.672524,33.4128205 296.104752,33.4608013 295.720905,33.1809135 L294.681322,32.4372115 C294.353454,32.2053045 293.753694,32.1573237 293.337861,32.3332532 C292.91403,32.5091827 292.522188,32.9729968 292.458213,33.3648397 L292.250296,34.6203365 C292.178325,35.0921474 291.746498,35.46 291.266691,35.46 Z M287.068373,31.4296154 C287.396242,31.4296154 287.708117,31.4935897 287.964014,31.5975481 C288.54778,31.8374519 289.203518,32.4771955 289.32347,33.2288942 L289.531386,34.4923878 C289.54738,34.5723558 289.643341,34.6603205 289.731306,34.6603205 L291.274688,34.6603205 C291.354655,34.6603205 291.458614,34.5723558 291.474607,34.4923878 L291.682524,33.236891 C291.810473,32.4851923 292.46621,31.8454487 293.041979,31.5975481 C293.625745,31.3576442 294.53738,31.3416506 295.16113,31.7894712 L296.200713,32.5331731 C296.272684,32.5811538 296.400633,32.5731571 296.456611,32.5091827 L297.544175,31.4216186 C297.600152,31.365641 297.616146,31.2296955 297.568165,31.1657212 L296.824463,30.1261378 C296.376643,29.5023878 296.392636,28.5907532 296.63254,28.0069872 C296.872444,27.4232212 297.512188,26.767484 298.263886,26.6475321 L299.52738,26.4396154 C299.607348,26.4236218 299.695313,26.3276603 299.695313,26.2396955 L299.695313,24.6963141 C299.695313,24.6163462 299.607348,24.5123878 299.52738,24.4963942 L298.263886,24.2884776 C297.512188,24.1605288 296.872444,23.5047917 296.63254,22.9290224 C296.392636,22.3452564 296.376643,21.4336218 296.824463,20.8098718 L297.568165,19.7702885 C297.616146,19.6983173 297.608149,19.5703686 297.544175,19.514391 L296.456611,18.4268269 C296.400633,18.3708494 296.264688,18.3548558 296.200713,18.4028365 L295.16113,19.1465385 C294.53738,19.594359 293.625745,19.5783654 293.041979,19.3384615 C292.458213,19.0985577 291.802476,18.4588141 291.682524,17.7071154 L291.474607,16.4436218 C291.458614,16.3636538 291.362652,16.2756891 291.274688,16.2756891 L289.731306,16.2756891 C289.651338,16.2756891 289.54738,16.3636538 289.531386,16.4436218 L289.32347,17.6991186 C289.195521,18.4508173 288.539784,19.0905609 287.964014,19.3304647 C287.380248,19.5703686 286.468614,19.5863622 285.844864,19.1385417 L284.80528,18.3948397 C284.741306,18.346859 284.605361,18.3548558 284.549383,18.4188301 L283.453822,19.5063942 C283.397845,19.5623718 283.381851,19.6983173 283.429832,19.7622917 L284.173534,20.801875 C284.621354,21.425625 284.605361,22.3372596 284.365457,22.9210256 C284.125553,23.5047917 283.485809,24.1605288 282.734111,24.2804808 L281.470617,24.4883974 C281.390649,24.504391 281.302684,24.6003526 281.302684,24.6883173 L281.302684,26.2316987 C281.302684,26.3116667 281.390649,26.415625 281.470617,26.4316186 L282.734111,26.6395353 C283.485809,26.767484 284.125553,27.4152244 284.365457,27.9989904 C284.605361,28.5827564 284.621354,29.494391 284.173534,30.118141 L283.429832,31.1577244 C283.381851,31.2296955 283.389848,31.3576442 283.453822,31.4136218 L284.549383,32.5011859 C284.613357,32.5651603 284.741306,32.5731571 284.80528,32.5251763 L285.844864,31.7814744 C286.196723,31.5335737 286.636546,31.4296154 287.068373,31.4296154 Z M290.498998,29.8622436 C288.07597,29.8622436 286.100761,27.8870353 286.100761,25.4640064 C286.100761,23.0409776 288.07597,21.0657692 290.498998,21.0657692 C292.922027,21.0657692 294.897236,23.0409776 294.897236,25.4640064 C294.897236,27.8870353 292.922027,29.8622436 290.498998,29.8622436 Z M290.498998,21.8654487 C288.515793,21.8654487 286.900441,23.4808013 286.900441,25.4640064 C286.900441,27.4472115 288.515793,29.0625641 290.498998,29.0625641 C292.482204,29.0625641 294.097556,27.4472115 294.097556,25.4640064 C294.097556,23.4808013 292.482204,21.8654487 290.498998,21.8654487 Z" id="Settings"></path>
        </g>
    </g>
</svg>